<svg xmlns="http://www.w3.org/2000/svg" width="600" height="396" viewBox="0 0 600 396" font-family="system-ui,-apple-system,sans-serif">
<rect width="600" height="396" fill="#0d1017" rx="12"/>
<text x="300.0" y="26" text-anchor="middle" fill="#e8eaed" font-size="15" font-weight="600">Subgraphs by Network</text>
<text x="102" y="55.0" text-anchor="end" fill="#7b8394" font-size="11">Mainnet</text>
<rect x="110" y="40" width="460.0" height="22" rx="4" fill="#3b82f6" opacity="0.85"/>
<text x="576.0" y="55.0" fill="#e8eaed" font-size="11">2,453</text>
<text x="102" y="83.0" text-anchor="end" fill="#7b8394" font-size="11">Base</text>
<rect x="110" y="68" width="339.4" height="22" rx="4" fill="#8b5cf6" opacity="0.85"/>
<text x="455.42111699959236" y="83.0" fill="#e8eaed" font-size="11">1,810</text>
<text x="102" y="111.0" text-anchor="end" fill="#7b8394" font-size="11">Bsc</text>
<rect x="110" y="96" width="308.3" height="22" rx="4" fill="#06b6d4" opacity="0.85"/>
<text x="424.29188748471256" y="111.0" fill="#e8eaed" font-size="11">1,644</text>
<text x="102" y="139.0" text-anchor="end" fill="#7b8394" font-size="11">Arbitrum One</text>
<rect x="110" y="124" width="266.8" height="22" rx="4" fill="#f59e0b" opacity="0.85"/>
<text x="382.84875662454135" y="139.0" fill="#e8eaed" font-size="11">1,423</text>
<text x="102" y="167.0" text-anchor="end" fill="#7b8394" font-size="11">Matic</text>
<rect x="110" y="152" width="243.4" height="22" rx="4" fill="#10b981" opacity="0.85"/>
<text x="359.4080717488789" y="167.0" fill="#e8eaed" font-size="11">1,298</text>
<text x="102" y="195.0" text-anchor="end" fill="#7b8394" font-size="11">Optimism</text>
<rect x="110" y="180" width="107.5" height="22" rx="4" fill="#ec4899" opacity="0.85"/>
<text x="223.45209947003667" y="195.0" fill="#e8eaed" font-size="11">573</text>
<text x="102" y="223.0" text-anchor="end" fill="#7b8394" font-size="11">Sepolia</text>
<rect x="110" y="208" width="104.8" height="22" rx="4" fill="#f97316" opacity="0.85"/>
<text x="220.8267427639625" y="223.0" fill="#e8eaed" font-size="11">559</text>
<text x="102" y="251.0" text-anchor="end" fill="#7b8394" font-size="11">Avalanche</text>
<rect x="110" y="236" width="83.6" height="22" rx="4" fill="#6366f1" opacity="0.85"/>
<text x="199.63636363636363" y="251.0" fill="#e8eaed" font-size="11">446</text>
<text x="102" y="279.0" text-anchor="end" fill="#7b8394" font-size="11">Zksync Era</text>
<rect x="110" y="264" width="70.3" height="22" rx="4" fill="#ef4444" opacity="0.85"/>
<text x="186.32205462698738" y="279.0" fill="#e8eaed" font-size="11">375</text>
<text x="102" y="307.0" text-anchor="end" fill="#7b8394" font-size="11">Linea</text>
<rect x="110" y="292" width="60.2" height="22" rx="4" fill="#14b8a6" opacity="0.85"/>
<text x="176.19567876070118" y="307.0" fill="#e8eaed" font-size="11">321</text>
<text x="102" y="335.0" text-anchor="end" fill="#7b8394" font-size="11">Gnosis</text>
<rect x="110" y="320" width="53.1" height="22" rx="4" fill="#a855f7" opacity="0.85"/>
<text x="169.0697105584998" y="335.0" fill="#e8eaed" font-size="11">283</text>
<text x="102" y="363.0" text-anchor="end" fill="#7b8394" font-size="11">Base Sepolia</text>
<rect x="110" y="348" width="52.9" height="22" rx="4" fill="#84cc16" opacity="0.85"/>
<text x="168.8821850794945" y="363.0" fill="#e8eaed" font-size="11">282</text>
</svg>